<svg xmlns="http://www.w3.org/2000/svg" xmlns:xlink="http://www.w3.org/1999/xlink" width="375" viewBox="0 0 375 375" height="375" version="1.0"><defs><g id="b"><path d="M 8 -0.398438 L 8 -19.199219 L 2 -19.199219 L 2 -18.796875 L 4 -18.796875 L 4 -0.398438 L 2 -0.398438 L 2 0 L 10 0 L 10 -0.398438 Z M 6 -23.199219 C 7.398438 -23.199219 8.398438 -24.199219 8.398438 -25.597656 C 8.398438 -27 7.398438 -28 6 -28 C 4.601562 -28 3.601562 -27 3.601562 -25.597656 C 3.601562 -24.199219 4.601562 -23.199219 6 -23.199219 Z M 6 -23.199219"/></g><g id="c"><path d="M 8 -28 L 2 -28 L 2 -27.597656 L 4 -27.597656 L 4 -0.398438 L 2 -0.398438 L 2 0 L 10 0 L 10 -0.398438 L 8 -0.398438 Z M 8 -28"/></g><g id="d"><path d="M 17 -0.398438 L 17 -11.597656 C 17 -16.800781 13.800781 -20 9.800781 -20 C 6.800781 -20 4.199219 -17.800781 4.199219 -17.800781 L 4.199219 -17.199219 C 4.199219 -17.199219 6.800781 -19.597656 9.800781 -19.597656 C 11.800781 -19.597656 13 -18.597656 13 -18.597656 L 13 -10.398438 C 13 -10.398438 11 -12 8.199219 -12 C 4.398438 -12 1.601562 -9.199219 1.601562 -5.601562 C 1.601562 -2 4.398438 0.800781 8.199219 0.800781 C 11 0.800781 13 -1.601562 13 -1.601562 L 13 0 L 19 0 L 19 -0.398438 Z M 8.199219 0.398438 C 7 0.398438 5.800781 0 5.800781 -0.0390625 L 5.800781 -11.199219 C 5.800781 -11.199219 7 -11.597656 8.199219 -11.597656 C 11 -11.597656 13 -9.800781 13 -9.800781 L 13 -2.199219 C 13 -2.199219 11 0.398438 8.199219 0.398438 Z M 8.199219 0.398438"/></g><g id="e"><path d="M 10.597656 -0.398438 C 8.199219 -0.398438 6.597656 -1.601562 6.597656 -1.601562 L 6.597656 -18.398438 C 6.597656 -18.398438 8.199219 -19.597656 10.597656 -19.597656 C 13.398438 -19.597656 15 -17.398438 15 -17.398438 L 15 -2.601562 C 15 -2.601562 13.398438 -0.398438 10.597656 -0.398438 Z M 11 8.398438 C 6.199219 8.398438 3.800781 4.398438 3.800781 4.398438 L 3.800781 5.199219 C 3.800781 5.199219 6.199219 8.800781 11 8.800781 C 15.800781 8.800781 19 5.601562 19 0.398438 L 19 -18.796875 L 21 -18.796875 L 21 -19.199219 L 15 -19.199219 L 15 -18 C 15 -18 13.398438 -20 10.597656 -20 C 6 -20 2 -16 2 -10 C 2 -4 6 0 10.597656 0 C 13.398438 0 15 -2 15 -2 L 15 7.398438 C 15 7.398438 13.398438 8.398438 11 8.398438 Z M 11 8.398438"/></g><g id="f"><path d="M 11 -20 C 6.398438 -20 2 -15.597656 2 -9.597656 C 2 -3.601562 6.398438 0.800781 11.398438 0.800781 C 15.800781 0.800781 18.199219 -2.398438 18.199219 -2.398438 L 18.199219 -3.199219 C 18.199219 -3.199219 15.800781 0.398438 11.398438 0.398438 C 8.597656 0.398438 6.597656 -1.199219 6.597656 -1.199219 L 6.597656 -9.160156 L 20 -9.160156 L 20 -9.597656 C 20 -15.597656 15.597656 -20 11 -20 Z M 15.398438 -9.597656 L 6.597656 -9.597656 L 6.597656 -18.199219 C 6.597656 -18.199219 8.597656 -19.597656 11 -19.597656 C 13.398438 -19.597656 15.398438 -18.199219 15.398438 -18.199219 Z M 15.398438 -9.597656"/></g><g id="h"><path d="M 8.398438 0.800781 C 12.800781 0.800781 15.597656 -2 15.597656 -5.199219 C 15.597656 -12 5 -11.597656 5 -15.597656 C 5 -18 6.597656 -19.597656 9.398438 -19.597656 C 12.199219 -19.597656 13.800781 -17.800781 13.800781 -17.800781 C 13.800781 -17.800781 13.199219 -18 12.800781 -18 C 11.398438 -18 10.398438 -17 10.398438 -15.800781 C 10.398438 -14.398438 11.398438 -13.398438 12.800781 -13.398438 C 14.199219 -13.398438 15.199219 -14.398438 15.199219 -15.800781 C 15.199219 -17.597656 12.800781 -20 9.398438 -20 C 5 -20 2.199219 -17.199219 2.199219 -14.398438 C 2.199219 -7.597656 12.800781 -8 12.800781 -4 C 12.800781 -1.398438 11 0.398438 8.398438 0.398438 C 3.199219 0.398438 1.199219 -4.398438 1.199219 -4.398438 L 1.199219 -3.601562 C 1.199219 -3.601562 3.199219 0.800781 8.398438 0.800781 Z M 8.398438 0.800781"/></g><g id="i"><path d="M 12 -2.800781 C 11.597656 -1 10.199219 0.398438 8.398438 0.398438 C 8 0.398438 7.597656 0.199219 7.597656 0.199219 L 7.597656 -18.796875 L 10.800781 -18.796875 L 10.800781 -19.199219 L 7.597656 -19.199219 L 7.597656 -27.597656 L 3.601562 -24 L 3.601562 -19.199219 L 1.601562 -19.199219 L 1.601562 -18.796875 L 3.601562 -18.796875 L 3.601562 -5.601562 C 3.601562 -1.601562 6 0.800781 8.398438 0.800781 C 10.398438 0.800781 12 -0.800781 12.398438 -2.800781 Z M 12 -2.800781"/></g><g id="g"><path d="M 81.917969 -89.597656 L 60.15625 -89.597656 L 60.15625 -88.316406 L 70.398438 -88.316406 L 47.359375 -20.480469 L 23.039062 -88.316406 L 30.71875 -88.316406 L 30.71875 -89.597656 L 0 -89.597656 L 0 -88.316406 L 7.679688 -88.316406 L 39.039062 0 L 41.597656 0 L 71.675781 -88.316406 L 81.917969 -88.316406 Z M 81.917969 -89.597656"/></g><g id="j"><path d="M 45.695312 -8.960938 L 31.933594 -44.160156 L 35.773438 -44.160156 L 35.773438 -44.796875 L 0 -44.796875 L 0 -44.160156 L 3.839844 -44.160156 L 21.121094 0 L 22.398438 0 L 32 -24.320312 L 41.535156 0 L 42.8125 0 L 56.636719 -35.199219 C 56.636719 -35.199219 57.917969 -38.398438 57.917969 -40.320312 C 57.917969 -43.199219 55.679688 -45.4375 52.796875 -45.4375 C 49.917969 -45.4375 47.679688 -43.199219 47.679688 -40.320312 C 47.679688 -37.4375 49.917969 -35.199219 52.796875 -35.199219 C 54.71875 -35.199219 56.316406 -36.160156 56.316406 -36.160156 Z M 24.253906 -44.160156 L 31.679688 -25.277344 L 25.277344 -8.960938 L 11.519531 -44.160156 Z M 24.253906 -44.160156"/></g><clipPath id="a"><path d="M 221.046875 252 L 243 252 L 243 256.660156 L 221.046875 256.660156 Z M 142 252 L 197.839844 252 L 197.839844 256.660156 L 142 256.660156 Z M 142 256.660156 L 243 256.660156 L 243 257 L 142 257 Z M 142 256.660156"/></clipPath></defs><path fill="#008037" d="M 88.210938 155.785156 L 133.226562 77.820312 L 178.242188 155.785156 Z M 88.210938 155.785156"/><path fill="#015726" d="M 141.148438 155.785156 L 164.328125 115.644531 L 187.503906 155.785156 Z M 141.148438 155.785156"/><path fill="#015726" d="M 164.328125 155.785156 L 187.503906 115.644531 L 210.679688 155.785156 Z M 164.328125 155.785156"/><path stroke-linecap="round" transform="matrix(.75203 0 0 .75 87.283 160.969)" fill="none" d="M 0.501012 0.0000124937 L 167.055787 0.0000124937" stroke="#334F52"/><g clip-path="url(#a)"><path fill="#334F52" d="M 142.648438 252.285156 L 242.632812 252.285156 L 242.632812 256.035156 L 142.648438 256.035156 Z M 142.648438 252.285156"/></g><g fill="#334F52"><use x="142.648" y="250.035" xmlns:xlink="http://www.w3.org/1999/xlink" xlink:href="#b" xlink:type="simple" xlink:actuate="onLoad" xlink:show="embed"/></g><g fill="#334F52"><use x="154.247" y="250.035" xmlns:xlink="http://www.w3.org/1999/xlink" xlink:href="#c" xlink:type="simple" xlink:actuate="onLoad" xlink:show="embed"/></g><g fill="#334F52"><use x="165.846" y="250.035" xmlns:xlink="http://www.w3.org/1999/xlink" xlink:href="#c" xlink:type="simple" xlink:actuate="onLoad" xlink:show="embed"/></g><g fill="#334F52"><use x="177.445" y="250.035" xmlns:xlink="http://www.w3.org/1999/xlink" xlink:href="#d" xlink:type="simple" xlink:actuate="onLoad" xlink:show="embed"/></g><g fill="#334F52"><use x="198.043" y="250.035" xmlns:xlink="http://www.w3.org/1999/xlink" xlink:href="#e" xlink:type="simple" xlink:actuate="onLoad" xlink:show="embed"/></g><g fill="#334F52"><use x="221.041" y="250.035" xmlns:xlink="http://www.w3.org/1999/xlink" xlink:href="#f" xlink:type="simple" xlink:actuate="onLoad" xlink:show="embed"/></g><g fill="#334F52"><use x="87.283" y="254.831" xmlns:xlink="http://www.w3.org/1999/xlink" xlink:href="#g" xlink:type="simple" xlink:actuate="onLoad" xlink:show="embed"/></g><path fill="#334F52" d="M 203.90625 207.171875 L 255.890625 207.171875 L 255.890625 210.921875 L 203.90625 210.921875 Z M 203.90625 207.171875"/><g fill="#334F52"><use x="203.906" y="204.922" xmlns:xlink="http://www.w3.org/1999/xlink" xlink:href="#f" xlink:type="simple" xlink:actuate="onLoad" xlink:show="embed"/></g><g fill="#334F52"><use x="225.504" y="204.922" xmlns:xlink="http://www.w3.org/1999/xlink" xlink:href="#h" xlink:type="simple" xlink:actuate="onLoad" xlink:show="embed"/></g><g fill="#334F52"><use x="242.703" y="204.922" xmlns:xlink="http://www.w3.org/1999/xlink" xlink:href="#i" xlink:type="simple" xlink:actuate="onLoad" xlink:show="embed"/></g><g fill="#334F52"><use x="148.319" y="210.3" xmlns:xlink="http://www.w3.org/1999/xlink" xlink:href="#j" xlink:type="simple" xlink:actuate="onLoad" xlink:show="embed"/></g></svg>