<svg xmlns="http://www.w3.org/2000/svg" xmlns:xlink="http://www.w3.org/1999/xlink" width="375" viewBox="0 0 375 187.5" height="187.5" version="1.0"><defs><g id="b"><path d="M 8.417969 -0.421875 L 8.417969 -20.203125 L 2.105469 -20.203125 L 2.105469 -19.78125 L 4.210938 -19.78125 L 4.210938 -0.421875 L 2.105469 -0.421875 L 2.105469 0 L 10.523438 0 L 10.523438 -0.421875 Z M 6.3125 -24.414062 C 7.785156 -24.414062 8.839844 -25.464844 8.839844 -26.9375 C 8.839844 -28.410156 7.785156 -29.464844 6.3125 -29.464844 C 4.839844 -29.464844 3.789062 -28.410156 3.789062 -26.9375 C 3.789062 -25.464844 4.839844 -24.414062 6.3125 -24.414062 Z M 6.3125 -24.414062"/></g><g id="c"><path d="M 8.417969 -29.464844 L 2.105469 -29.464844 L 2.105469 -29.042969 L 4.210938 -29.042969 L 4.210938 -0.421875 L 2.105469 -0.421875 L 2.105469 0 L 10.523438 0 L 10.523438 -0.421875 L 8.417969 -0.421875 Z M 8.417969 -29.464844"/></g><g id="d"><path d="M 17.886719 -0.421875 L 17.886719 -12.207031 C 17.886719 -17.679688 14.519531 -21.046875 10.3125 -21.046875 C 7.15625 -21.046875 4.417969 -18.730469 4.417969 -18.730469 L 4.417969 -18.097656 C 4.417969 -18.097656 7.15625 -20.625 10.3125 -20.625 C 12.417969 -20.625 13.679688 -19.570312 13.679688 -19.570312 L 13.679688 -10.945312 C 13.679688 -10.945312 11.574219 -12.628906 8.628906 -12.628906 C 4.628906 -12.628906 1.683594 -9.679688 1.683594 -5.894531 C 1.683594 -2.105469 4.628906 0.84375 8.628906 0.84375 C 11.574219 0.84375 13.679688 -1.683594 13.679688 -1.683594 L 13.679688 0 L 19.992188 0 L 19.992188 -0.421875 Z M 8.628906 0.421875 C 7.367188 0.421875 6.101562 0 6.101562 -0.0429688 L 6.101562 -11.785156 C 6.101562 -11.785156 7.367188 -12.207031 8.628906 -12.207031 C 11.574219 -12.207031 13.679688 -10.3125 13.679688 -10.3125 L 13.679688 -2.316406 C 13.679688 -2.316406 11.574219 0.421875 8.628906 0.421875 Z M 8.628906 0.421875"/></g><g id="e"><path d="M 11.152344 -0.421875 C 8.628906 -0.421875 6.945312 -1.683594 6.945312 -1.683594 L 6.945312 -19.363281 C 6.945312 -19.363281 8.628906 -20.625 11.152344 -20.625 C 14.101562 -20.625 15.785156 -18.308594 15.785156 -18.308594 L 15.785156 -2.734375 C 15.785156 -2.734375 14.101562 -0.421875 11.152344 -0.421875 Z M 11.574219 8.839844 C 6.523438 8.839844 4 4.628906 4 4.628906 L 4 5.472656 C 4 5.472656 6.523438 9.261719 11.574219 9.261719 C 16.625 9.261719 19.992188 5.894531 19.992188 0.421875 L 19.992188 -19.78125 L 22.097656 -19.78125 L 22.097656 -20.203125 L 15.785156 -20.203125 L 15.785156 -18.941406 C 15.785156 -18.941406 14.101562 -21.046875 11.152344 -21.046875 C 6.3125 -21.046875 2.105469 -16.835938 2.105469 -10.523438 C 2.105469 -4.210938 6.3125 0 11.152344 0 C 14.101562 0 15.785156 -2.105469 15.785156 -2.105469 L 15.785156 7.785156 C 15.785156 7.785156 14.101562 8.839844 11.574219 8.839844 Z M 11.574219 8.839844"/></g><g id="f"><path d="M 11.574219 -21.046875 C 6.734375 -21.046875 2.105469 -16.414062 2.105469 -10.101562 C 2.105469 -3.789062 6.734375 0.84375 11.996094 0.84375 C 16.625 0.84375 19.152344 -2.527344 19.152344 -2.527344 L 19.152344 -3.367188 C 19.152344 -3.367188 16.625 0.421875 11.996094 0.421875 C 9.050781 0.421875 6.945312 -1.261719 6.945312 -1.261719 L 6.945312 -9.636719 L 21.046875 -9.636719 L 21.046875 -10.101562 C 21.046875 -16.414062 16.414062 -21.046875 11.574219 -21.046875 Z M 16.203125 -10.101562 L 6.945312 -10.101562 L 6.945312 -19.152344 C 6.945312 -19.152344 9.050781 -20.625 11.574219 -20.625 C 14.101562 -20.625 16.203125 -19.152344 16.203125 -19.152344 Z M 16.203125 -10.101562"/></g><g id="h"><path d="M 8.839844 0.84375 C 13.46875 0.84375 16.414062 -2.105469 16.414062 -5.472656 C 16.414062 -12.628906 5.261719 -12.207031 5.261719 -16.414062 C 5.261719 -18.941406 6.945312 -20.625 9.890625 -20.625 C 12.835938 -20.625 14.519531 -18.730469 14.519531 -18.730469 C 14.519531 -18.730469 13.890625 -18.941406 13.46875 -18.941406 C 11.996094 -18.941406 10.945312 -17.886719 10.945312 -16.625 C 10.945312 -15.152344 11.996094 -14.101562 13.46875 -14.101562 C 14.941406 -14.101562 15.996094 -15.152344 15.996094 -16.625 C 15.996094 -18.519531 13.46875 -21.046875 9.890625 -21.046875 C 5.261719 -21.046875 2.316406 -18.097656 2.316406 -15.152344 C 2.316406 -7.996094 13.46875 -8.417969 13.46875 -4.210938 C 13.46875 -1.472656 11.574219 0.421875 8.839844 0.421875 C 3.367188 0.421875 1.261719 -4.628906 1.261719 -4.628906 L 1.261719 -3.789062 C 1.261719 -3.789062 3.367188 0.84375 8.839844 0.84375 Z M 8.839844 0.84375"/></g><g id="i"><path d="M 12.628906 -2.945312 C 12.207031 -1.050781 10.734375 0.421875 8.839844 0.421875 C 8.417969 0.421875 7.996094 0.210938 7.996094 0.210938 L 7.996094 -19.78125 L 11.363281 -19.78125 L 11.363281 -20.203125 L 7.996094 -20.203125 L 7.996094 -29.042969 L 3.789062 -25.253906 L 3.789062 -20.203125 L 1.683594 -20.203125 L 1.683594 -19.78125 L 3.789062 -19.78125 L 3.789062 -5.894531 C 3.789062 -1.683594 6.3125 0.84375 8.839844 0.84375 C 10.945312 0.84375 12.628906 -0.84375 13.046875 -2.945312 Z M 12.628906 -2.945312"/></g><g id="g"><path d="M 86.203125 -94.285156 L 63.304688 -94.285156 L 63.304688 -92.9375 L 74.082031 -92.9375 L 49.835938 -21.550781 L 24.246094 -92.9375 L 32.328125 -92.9375 L 32.328125 -94.285156 L 0 -94.285156 L 0 -92.9375 L 8.082031 -92.9375 L 41.082031 0 L 43.773438 0 L 75.429688 -92.9375 L 86.203125 -92.9375 Z M 86.203125 -94.285156"/></g><g id="j"><path d="M 48.082031 -9.429688 L 33.605469 -46.464844 L 37.644531 -46.464844 L 37.644531 -47.140625 L 0 -47.140625 L 0 -46.464844 L 4.039062 -46.464844 L 22.222656 0 L 23.570312 0 L 33.671875 -25.589844 L 43.707031 0 L 45.050781 0 L 59.597656 -37.039062 C 59.597656 -37.039062 60.945312 -40.40625 60.945312 -42.425781 C 60.945312 -45.457031 58.589844 -47.8125 55.558594 -47.8125 C 52.527344 -47.8125 50.171875 -45.457031 50.171875 -42.425781 C 50.171875 -39.394531 52.527344 -37.039062 55.558594 -37.039062 C 57.578125 -37.039062 59.261719 -38.046875 59.261719 -38.046875 Z M 25.523438 -46.464844 L 33.335938 -26.601562 L 26.601562 -9.429688 L 12.121094 -46.464844 Z M 25.523438 -46.464844"/></g><clipPath id="a"><path d="M 235 134 L 341 134 L 341 134.378906 L 235 134.378906 Z M 318.007812 134.378906 L 341 134.378906 L 341 139 L 318.007812 139 Z M 235 134.378906 L 293.589844 134.378906 L 293.589844 139 L 235 139 Z M 235 134.378906"/></clipPath></defs><path fill="#008037" d="M 15.953125 136.367188 L 79.230469 26.769531 L 142.511719 136.367188 Z M 15.953125 136.367188"/><path fill="#015726" d="M 90.367188 136.367188 L 122.949219 79.941406 L 155.527344 136.367188 Z M 90.367188 136.367188"/><path fill="#015726" d="M 122.949219 136.367188 L 155.527344 79.941406 L 188.109375 136.367188 Z M 122.949219 136.367188"/><path stroke-linecap="round" transform="matrix(2.24254 -.0129 .01094 1.90218 15.952 155.73)" fill="none" d="M 0.500393 -0.000371257 L 153.269428 0.000415713" stroke="#436363"/><g clip-path="url(#a)"><path fill="#436363" d="M 235.511719 134.753906 L 340.722656 134.753906 L 340.722656 138.496094 L 235.511719 138.496094 Z M 235.511719 134.753906"/></g><g fill="#436363"><use x="235.512" y="132.51" xmlns:xlink="http://www.w3.org/1999/xlink" xlink:href="#b" xlink:type="simple" xlink:actuate="onLoad" xlink:show="embed"/></g><g fill="#436363"><use x="247.718" y="132.51" xmlns:xlink="http://www.w3.org/1999/xlink" xlink:href="#c" xlink:type="simple" xlink:actuate="onLoad" xlink:show="embed"/></g><g fill="#436363"><use x="259.923" y="132.51" xmlns:xlink="http://www.w3.org/1999/xlink" xlink:href="#c" xlink:type="simple" xlink:actuate="onLoad" xlink:show="embed"/></g><g fill="#436363"><use x="272.128" y="132.51" xmlns:xlink="http://www.w3.org/1999/xlink" xlink:href="#d" xlink:type="simple" xlink:actuate="onLoad" xlink:show="embed"/></g><g fill="#436363"><use x="293.803" y="132.51" xmlns:xlink="http://www.w3.org/1999/xlink" xlink:href="#e" xlink:type="simple" xlink:actuate="onLoad" xlink:show="embed"/></g><g fill="#436363"><use x="318.003" y="132.51" xmlns:xlink="http://www.w3.org/1999/xlink" xlink:href="#f" xlink:type="simple" xlink:actuate="onLoad" xlink:show="embed"/></g><g fill="#436363"><use x="170.678" y="137.683" xmlns:xlink="http://www.w3.org/1999/xlink" xlink:href="#g" xlink:type="simple" xlink:actuate="onLoad" xlink:show="embed"/></g><path fill="#436363" d="M 303.6875 87.28125 L 358.398438 87.28125 L 358.398438 91.023438 L 303.6875 91.023438 Z M 303.6875 87.28125"/><g fill="#436363"><use x="303.687" y="85.039" xmlns:xlink="http://www.w3.org/1999/xlink" xlink:href="#f" xlink:type="simple" xlink:actuate="onLoad" xlink:show="embed"/></g><g fill="#436363"><use x="326.414" y="85.039" xmlns:xlink="http://www.w3.org/1999/xlink" xlink:href="#h" xlink:type="simple" xlink:actuate="onLoad" xlink:show="embed"/></g><g fill="#436363"><use x="344.511" y="85.039" xmlns:xlink="http://www.w3.org/1999/xlink" xlink:href="#i" xlink:type="simple" xlink:actuate="onLoad" xlink:show="embed"/></g><g fill="#436363"><use x="240.048" y="90.792" xmlns:xlink="http://www.w3.org/1999/xlink" xlink:href="#j" xlink:type="simple" xlink:actuate="onLoad" xlink:show="embed"/></g></svg>